<?xml version="1.0" encoding="iso-8859-1"?>
<!-- Generator: Adobe Illustrator 19.0.0, SVG Export Plug-In . SVG Version: 6.00 Build 0)  -->
<svg xmlns="http://www.w3.org/2000/svg" xmlns:xlink="http://www.w3.org/1999/xlink" version="1.1" id="Layer_1" x="0px" y="0px" viewBox="0 0 488.982 488.982" style="enable-background:new 0 0 488.982 488.982;" xml:space="preserve" width="512px" height="512px">
<g>
	<g>
		<path d="M453.522,183.286c-2.7-95.8-79.2-176-174.8-182.8c-106-7.5-195,72.7-201.8,175.4l-0.5,5.2c-1,16.7-6.4,43.6-14.3,58.8    c-8.3,15.9-17,31.5-24.1,42.5c-7,10.8,0.8,25,13.7,25h24.7v90.5c0,18.3,14.8,33.1,33.1,33.1h51.6v45.5c0,8.6,8.4,14.6,16.6,11.8    l217.1-73.9c7.6-2.6,12.7-9.7,12.7-17.7v-84.8C437.222,277.586,454.822,232.586,453.522,183.286z M350.522,217.586    c-7.5-6.6-18.2-3.7-18.2,9.2v31.4c0,9.2-7.5,16.7-16.7,16.7h-0.4h-0.1h-22.7h-8.4c-12.5-0.3-15.2-10.9-8.7-18.3    c10.8-12.3,5-31.3-14.7-32.1c-19.7,0.8-25.5,19.8-14.7,32.1c6.5,7.4,3.7,18-8.7,18.3h-9.3h-21.7c-9.4,0-17-7.7-17-17.1v-31    c0-12.9-10.6-15.7-18.1-9.2c-12.3,10.8-31,5-31.8-14.7c0.7-19.7,19.5-25.5,31.8-14.7c7.5,6.6,18,3.7,18-9.2v-30.7    c0-9.2,7.5-16.7,16.7-16.7h30.9c12.9,0,15.7-10.9,9.2-18.3c-10.8-12.3-5-31.3,14.7-32.1c19.7,0.8,25.6,19.8,14.7,32.1    c-6.6,7.5-3.7,18.3,9.2,18.3h31.1c9.2,0,16.7,7.5,16.7,16.7v30.7c0,12.9,10.8,15.7,18.3,9.2c12.3-10.8,31.1-5,31.9,14.7    C381.722,222.586,362.822,228.486,350.522,217.586z" fill="#f8c843"/>
	</g>
</g>
<g>
</g>
<g>
</g>
<g>
</g>
<g>
</g>
<g>
</g>
<g>
</g>
<g>
</g>
<g>
</g>
<g>
</g>
<g>
</g>
<g>
</g>
<g>
</g>
<g>
</g>
<g>
</g>
<g>
</g>
</svg>
